<?xml version="1.0" encoding="UTF-8" standalone="no"?>
<!-- Created with Inkscape (http://www.inkscape.org/) -->

<svg
   width="120.00004mm"
   height="120.00002mm"
   viewBox="0 0 120.00004 120.00001"
   version="1.1"
   id="svg1"
   xml:space="preserve"
   xmlns="http://www.w3.org/2000/svg"
   xmlns:svg="http://www.w3.org/2000/svg"><defs
     id="defs1" /><g
     id="layer1"
     transform="translate(-48.509923,-53.470261)"><path
       style="fill:#000000;stroke-width:0.999999"
       d="m 48.509923,173.33527 c 0,-0.0741 0.404795,-1.27249 0.899543,-2.66271 0.494749,-1.39023 1.150218,-3.43304 1.456597,-4.53952 0.950128,-3.43145 2.625356,-6.91588 5.595761,-11.63905 1.976268,-3.1424 2.151193,-3.5769 2.699141,-6.70415 0.397402,-2.26807 0.883423,-3.43195 1.433136,-3.43195 0.339039,0 0.324755,0.38955 -0.0366,0.99817 -0.243083,0.40943 -0.224885,0.4701 0.106614,0.3555 0.45351,-0.15689 1.087499,0.40033 1.354692,1.19072 0.191079,0.56518 0.670453,0.73483 0.668801,0.23669 -5.4e-4,-0.16276 -0.243303,-0.65419 -0.539476,-1.09205 -0.296172,-0.43797 -0.502502,-1.02375 -0.458513,-1.30183 0.06601,-0.41725 0.229024,-0.49212 0.933328,-0.42853 1.038211,0.0939 1.065954,-0.0536 0.14492,-0.76736 l -0.708425,-0.54927 0.491457,-1.51038 c 0.632334,-1.94332 1.076455,-2.76353 1.971152,-3.6405 0.39842,-0.3906 0.9403,-1.24267 1.204177,-1.89355 0.263878,-0.65082 0.871609,-1.70354 1.350515,-2.33921 0.478906,-0.63566 0.944703,-1.43445 1.035105,-1.77512 0.472388,-1.7801 2.226169,-3.4494 4.511757,-4.29444 0.81768,-0.30229 1.927426,-0.7973 2.466102,-1.09997 0.538676,-0.30273 1.153434,-0.55043 1.366127,-0.55043 0.546966,0 1.724264,-0.51075 1.724264,-0.74802 0,-0.1093 -0.309857,-0.19874 -0.68857,-0.19874 -0.59651,0 -0.642739,-0.0497 -0.345776,-0.37233 0.42353,-0.45994 1.950489,-1.16212 3.003606,-1.38107 0.433236,-0.0902 1.409745,-0.54523 2.170018,-1.01145 1.710014,-1.04881 3.023431,-1.2837 6.931398,-1.23983 3.143034,0.0354 3.633128,-0.0468 3.633128,-0.60729 0,-0.29211 -0.476433,-0.58117 -2.299899,-1.3953 -0.69775,-0.31155 -1.63862,-2.37435 -1.63862,-3.59261 0,-0.68652 0.241826,-1.03923 1.443043,-2.10493 0.793673,-0.70408 1.965159,-1.96763 2.603301,-2.80785 1.248612,-1.64401 1.220063,-2.05536 -0.142645,-2.05536 -0.46315,0 -0.771243,-0.15266 -0.869116,-0.43064 -0.08339,-0.23684 -0.504896,-0.66604 -0.936681,-0.95381 -0.633093,-0.42193 -0.785062,-0.69802 -0.785062,-1.42619 0,-1.50322 0.610775,-1.79881 3.796279,-1.83714 1.480262,-0.0179 2.937148,-0.15094 3.237526,-0.29585 0.669642,-0.32305 1.546193,-0.34187 1.754758,-0.0377 0.280071,0.40851 -0.145969,1.40851 -0.54175,1.2716 -0.514919,-0.17813 -0.46294,0.16418 0.07919,0.52153 0.409286,0.26977 0.367494,0.36623 -0.472833,1.09118 -0.506991,0.43739 -1.312158,1.06153 -1.78926,1.38696 -1.328633,0.90628 -1.60026,1.18234 -1.60026,1.62632 0,0.22504 -0.119265,0.51665 -0.265032,0.64804 -0.337646,0.3044 1.043899,1.74926 1.672564,1.74926 0.242936,0 0.882252,0.26251 1.420702,0.58328 0.585231,0.34864 1.562995,0.64485 2.430941,0.73651 1.439442,0.15197 1.462532,0.14438 2.681532,-0.87907 0.67627,-0.56789 1.25582,-1.19222 1.28789,-1.38748 0.13407,-0.81626 -0.36395,-2.84017 -0.69887,-2.84017 -0.23839,0 -0.40133,-0.50423 -0.51628,-1.59764 -0.0924,-0.8787 -0.19109,-1.75741 -0.21937,-1.95266 -0.0283,-0.19526 -0.31655,-0.46016 -0.64063,-0.58869 -0.32409,-0.12849 -0.58924,-0.31489 -0.58924,-0.4142 0,-0.0993 -0.27222,-0.18057 -0.60492,-0.18057 -0.34621,0 -0.984494,-0.35302 -1.492484,-0.82546 -1.422963,-1.32342 -2.639117,-1.62573 -5.275521,-1.31138 l -2.210814,0.2636 -1.363039,1.35083 c -0.74967,0.74295 -1.574089,1.69698 -1.832041,2.12006 -0.669444,1.09799 -1.044941,0.95481 -1.241475,-0.47336 -0.09405,-0.68345 -0.241248,-1.73896 -0.32711,-2.34558 -0.150214,-1.06129 -0.09047,-1.18962 1.581715,-3.397171 0.955804,-1.26182 1.737827,-2.419314 1.737827,-2.572191 0,-0.152894 0.189,-0.52122 0.419999,-0.818505 0.384954,-0.495425 0.384954,-0.575433 0,-0.958879 -0.230999,-0.230089 -0.419999,-0.552451 -0.419999,-0.716375 0,-0.216286 -0.28647,-0.254395 -1.044567,-0.138943 -1.456176,0.22177 -2.566702,-0.04229 -2.802787,-0.666466 -0.107364,-0.283842 -0.179166,-0.576054 -0.159558,-0.649328 0.01961,-0.07327 -0.379344,-0.103784 -0.886555,-0.06779 -1.132988,0.08041 -3.24753,-0.891625 -4.311262,-1.981868 -0.932531,-0.95579 -1.144577,-1.622723 -2.052669,-6.456181 -0.403544,-2.147925 -0.924007,-4.234824 -1.156584,-4.637549 -0.232576,-0.402712 -0.501579,-1.267092 -0.597785,-1.920841 -0.157136,-1.067785 -0.113101,-1.227651 0.433178,-1.572563 0.334452,-0.211171 1.145118,-0.53195 1.801478,-0.712842 0.65636,-0.180893 1.695542,-0.465519 2.309295,-0.632507 0.613752,-0.16699 1.115914,-0.372986 1.115914,-0.457784 0,-0.0848 0.206772,-0.366457 0.459494,-0.625926 0.252721,-0.259458 0.588547,-0.678957 0.746281,-0.932198 0.623875,-1.00167 2.657007,-1.300597 5.620991,-0.826441 3.110478,0.497595 3.938519,0.556588 3.938519,0.280606 0,-0.148307 0.221844,-0.269648 0.492986,-0.269648 0.271142,0 0.638997,-0.158598 0.817454,-0.352431 0.178458,-0.193835 0.415849,-0.301509 0.527536,-0.239284 0.111687,0.06227 0.342583,-0.03838 0.513105,-0.22363 0.732275,-0.795357 3.298306,-1.721902 5.137058,-1.854889 2.07144,-0.149823 4.61911,0.27624 5.38427,0.900438 0.35216,0.287298 1.18371,0.427388 3.10252,0.522704 1.44179,0.07165 2.83853,0.0548 3.1039,-0.03731 0.46779,-0.162436 0.46782,-0.174955 9e-4,-0.411211 -0.34436,-0.174244 -0.43645,-0.405747 -0.32321,-0.812489 0.0871,-0.312848 0.0638,-0.56881 -0.0519,-0.56881 -0.11563,0 -0.35889,-0.505918 -0.54057,-1.124256 -0.18169,-0.618349 -0.45605,-1.481927 -0.60972,-1.919074 -0.15366,-0.437144 -0.26502,-1.758019 -0.24745,-2.935282 0.0431,-2.888537 -0.0905,-3.015472 -3.17456,-3.015472 -2.2052,0 -2.34326,-0.03001 -2.61633,-0.570356 -0.17951,-0.355142 -0.74706,-0.724918 -1.50414,-0.980005 -0.66871,-0.225313 -1.35868,-0.510595 -1.53324,-0.633965 -0.22688,-0.160346 -0.36933,-0.03274 -0.49953,0.447459 -0.10018,0.369481 -0.39883,0.923938 -0.66367,1.232143 -0.26484,0.308197 -0.40544,0.671316 -0.31246,0.806931 0.11442,0.1669 -0.3935,0.19922 -1.571843,0.100028 -1.420805,-0.119601 -1.783046,-0.07864 -1.970144,0.222723 -0.302057,0.486546 -2.627096,0.887669 -3.098973,0.534647 -0.560289,-0.419158 -5.907511,0.22752 -6.095997,0.737245 -0.145712,0.394043 -1.644295,1.653436 -1.967473,1.653436 -0.127883,0 -0.158377,-0.266274 -0.06776,-0.591714 0.150638,-0.541023 0.09102,-0.591719 -0.695945,-0.591719 -0.818756,0 -0.889013,0.07211 -1.441816,1.479296 -0.632601,1.610335 -0.791166,2.722768 -0.851858,5.97633 -0.05354,2.870334 -0.4217,2.003652 -0.940436,-2.213872 -0.216523,-1.760403 -0.452634,-3.42032 -0.524692,-3.688702 -0.07206,-0.268374 -0.231024,-1.485184 -0.353261,-2.704028 -0.122236,-1.218837 -0.355633,-2.290378 -0.518661,-2.3812 -0.2061,-0.114823 -0.24423,-0.827843 -0.125145,-2.340146 l 0.171269,-2.175014 h 23.359805 23.35982 l -0.15547,1.479298 c -0.21951,2.088654 -0.38513,3.118961 -0.82751,5.147921 -0.70082,3.21427 -1.20225,6.93435 -1.36149,10.100952 l -0.15685,3.118684 -1.53688,1.370946 c -0.97244,0.867433 -1.5369,1.567464 -1.5369,1.906019 0,0.52644 0.0185,0.523365 1.14194,-0.190497 0.65093,-0.413588 1.51953,-0.742246 2.0201,-0.764352 1.4445,-0.06379 1.62494,0.520764 1.43508,4.648922 -0.17215,3.74285 -0.47345,5.235016 -0.75008,3.714662 -0.0829,-0.455617 -0.22449,-1.754872 -0.31464,-2.887222 -0.10753,-1.350806 -0.2938,-2.156 -0.54165,-2.341418 -0.62362,-0.466536 -0.71006,-0.07049 -0.23129,1.059574 0.35502,0.837974 0.42851,1.589863 0.34265,3.505496 -0.11791,2.630838 -0.56241,3.818453 -1.51302,4.042542 -0.29288,0.06905 -0.65212,0.428727 -0.79834,0.799309 -0.14621,0.37059 -0.39114,0.86914 -0.54431,1.107898 -0.15315,0.23876 -0.20277,0.744759 -0.11025,1.124455 0.12529,0.514214 0.0599,0.727819 -0.25627,0.837187 -1.07007,0.370142 -1.64094,2.93785 -0.73327,3.298119 0.25272,0.100321 0.87304,0.227687 1.37849,0.283056 0.50544,0.05536 0.9651,0.141637 1.02145,0.191718 0.0564,0.0501 -0.32465,0.517209 -0.84668,1.038077 -1.0638,1.061435 -1.06593,1.067953 -1.46908,4.509263 -0.41212,3.51771 -0.32065,5.16386 0.29673,5.3405 1.24725,0.35685 4.46668,5.45099 4.77712,7.55893 0.25305,1.71819 1.09711,3.23515 2.16818,3.89671 0.50837,0.31402 1.44394,1.1797 2.07905,1.92372 1.97165,2.3097 3.78251,3.2871 6.09672,3.29071 0.47509,6.9e-4 1.32701,0.2143 1.89315,0.47461 0.59292,0.27267 1.54752,0.47344 2.25148,0.47344 0.76942,0 1.67297,0.20806 2.43921,0.56183 0.6694,0.30897 1.71575,0.74976 2.32522,0.97948 0.60947,0.22975 1.31841,0.6273 1.57541,0.88352 0.25701,0.25612 0.93594,0.68134 1.50874,0.94485 2.05271,0.94435 4.13308,3.25754 2.92973,3.25754 -0.47544,0 -3.41302,1.17375 -3.267,1.30535 0.17594,0.15864 2.07488,-0.36159 3.19367,-0.87479 0.96007,-0.44049 1.03434,-0.44299 1.51348,-0.0522 0.27711,0.22605 0.92897,1.00557 1.44855,1.73234 0.51958,0.72661 1.14832,1.58747 1.39721,1.91287 0.24889,0.32544 0.52848,0.86734 0.6213,1.20417 0.24982,0.90653 1.25369,1.98522 1.50558,1.61776 0.24552,-0.35808 1.47208,0.79354 1.72111,1.61601 0.0887,0.29285 0.26659,0.53248 0.39535,0.53248 0.12875,0 0.23411,0.19529 0.23411,0.43396 0,0.23863 0.0886,0.51378 0.19691,0.61142 0.10831,0.0979 0.19693,0.30031 0.19693,0.45047 0,0.15003 0.22765,0.31241 0.50587,0.3607 0.5995,0.10401 1.4423,0.952 1.45465,1.46363 0.005,0.19879 0.19965,0.60718 0.43298,0.90749 0.31217,0.40177 0.34685,0.61575 0.13128,0.8101 -0.48431,0.43651 -0.33276,0.86141 0.36347,1.01894 0.36103,0.0815 0.67018,0.27005 0.68698,0.41869 0.0168,0.14861 0.0614,1.01835 0.0991,1.93281 0.0493,1.19526 0.22496,1.89386 0.62487,2.48522 0.30596,0.45242 0.55674,1.10246 0.55728,1.44456 5.4e-4,0.34208 0.1798,1.0078 0.39836,1.47929 0.21855,0.47153 0.31839,0.85734 0.22187,0.85734 -0.0966,0 0.0203,0.19501 0.25961,0.4334 0.23933,0.23837 0.34986,0.51023 0.24563,0.60419 -0.10422,0.0942 0.009,0.10228 0.251,0.0185 0.68662,-0.23751 0.83244,0.80044 0.51186,3.6435 -0.17718,1.57133 -0.19052,2.54904 -0.0354,2.59826 0.13675,0.0435 0.25145,0.78894 0.2549,1.65681 0.003,0.86782 0.1071,1.96907 0.23034,2.44716 0.12324,0.47809 0.12447,0.95908 0.003,1.06885 -0.37774,0.34048 -0.32864,2.73646 0.0816,3.97901 0.21486,0.65091 0.46827,1.63611 0.56313,2.18939 l 0.17247,1.00589 h -58.03062 c -31.916834,0 -58.030612,-0.0643 -58.030612,-0.14314 0,-0.0786 0.296175,-0.69114 0.658165,-1.36095 l 0.658165,-1.21778 -0.650577,0.70535 c -0.357817,0.38798 -0.722457,1.00041 -0.81031,1.36098 -0.155767,0.63927 -0.204882,0.65554 -1.976849,0.65554 -0.999411,0 -1.817113,-0.061 -1.817113,-0.13503 z m 2.992862,-2.00506 c 0.280612,-0.57335 0.387563,-1.11869 0.266902,-1.36093 -0.167702,-0.33671 -0.219981,-0.30541 -0.3129,0.18742 -0.06136,0.32545 -0.199609,0.64497 -0.307227,0.71007 -0.292332,0.1768 -0.583049,1.42016 -0.332058,1.42016 0.119371,0 0.427748,-0.43056 0.685283,-0.95672 z m 3.825863,-2.59363 c 0,-0.31556 -0.02828,-0.31556 -0.254527,0 -0.139989,0.19526 -0.254526,0.5148 -0.254526,0.71006 0,0.31559 0.02828,0.31559 0.254526,0 0.13999,-0.19526 0.254527,-0.5148 0.254527,-0.71006 z m -0.108571,-4.62081 c 0.368051,-1.12035 1.184186,-1.93429 1.668809,-1.66428 0.327663,0.18253 1.32589,-0.68545 1.120498,-0.97432 -0.09807,-0.13788 -0.450869,-0.32747 -0.784009,-0.42122 -0.866001,-0.2437 -0.625776,-0.82261 0.605709,-1.45966 1.128179,-0.58362 2.959239,-0.73627 3.824498,-0.31883 0.562785,0.27152 0.699298,-0.0498 0.179664,-0.42263 -0.180516,-0.12962 -0.742885,-0.36782 -1.249711,-0.52932 -0.793826,-0.25304 -1.17909,-0.2246 -2.78067,0.2054 -1.022544,0.27448 -2.073587,0.71262 -2.335652,0.97368 -0.262064,0.26105 -0.69448,0.47461 -0.960922,0.47461 -0.586088,0 -0.625612,0.30978 -0.09059,0.71007 0.510505,0.3819 0.502075,0.94155 -0.01936,1.28526 -0.373505,0.24618 -0.36778,0.34371 0.05958,1.01494 0.407825,0.64056 0.427873,0.8546 0.14589,1.55754 -0.179798,0.44819 -0.239642,1.01505 -0.132985,1.25965 0.18516,0.42461 0.197643,0.42332 0.276303,-0.0287 0.04531,-0.26032 0.258132,-1.00836 0.47294,-1.66223 z m 102.780673,0.79439 c 0,-0.86184 -0.11462,-0.8306 -0.36192,0.0988 -0.10283,0.38642 -0.0645,0.65092 0.0944,0.65092 0.14717,0 0.26758,-0.3373 0.26758,-0.74952 z M 56.566325,164.66854 c -0.08382,-0.18881 -0.146036,-0.13271 -0.158635,0.14301 -0.0114,0.24951 0.05066,0.38928 0.137906,0.31065 0.08725,-0.0785 0.09658,-0.28281 0.02073,-0.45366 z m 44.505465,-1.02172 c 0.33728,-0.66728 0.17159,-0.95408 -0.4308,-0.74571 -0.44575,0.15421 -0.56695,1.33845 -0.13698,1.33845 0.14751,0 0.403,-0.26674 0.56778,-0.59274 z m 56.58578,-0.52703 c -0.0666,-0.23029 -0.12542,-0.0994 -0.13077,0.29136 -0.005,0.39053 0.0491,0.57895 0.12104,0.41869 0.0719,-0.16023 0.0763,-0.47977 0.01,-0.71005 z m 3.82221,0.48963 c -0.18052,-0.0655 -0.47591,-0.0655 -0.65643,0 -0.18051,0.0655 -0.0328,0.1194 0.32821,0.1194 0.36103,0 0.50873,-0.0538 0.32822,-0.1194 z m -57.21339,-0.66486 c 0.27748,-0.65184 3.30482,-4.08029 4.36606,-4.94454 0.76557,-0.62347 1.29619,-0.86104 1.92303,-0.86104 1.17616,0 1.62778,-0.42308 1.05775,-0.99089 -0.39976,-0.39819 -0.39903,-0.46107 0.0102,-0.86867 0.36959,-0.36817 0.38292,-0.48303 0.0822,-0.70801 -0.19745,-0.14772 -0.44658,-0.18965 -0.55364,-0.0934 -0.10706,0.0967 -0.17081,0.069 -0.14168,-0.0613 0.11099,-0.4959 -0.0211,-0.94198 -0.21036,-0.71005 -0.10621,0.13019 -0.59444,0.4271 -1.08495,0.6599 -0.85662,0.40652 -0.93696,0.40652 -2.03372,0 -0.62803,-0.2328 -1.14231,-0.545 -1.14285,-0.69378 -9.9e-4,-0.35463 -0.40333,-0.48039 -2.17289,-0.67971 l -1.46654,-0.16515 v 1.3356 c 0,1.71258 -0.24909,2.71942 -0.84128,3.40038 -0.72368,0.83224 -0.88719,1.86571 -0.40099,2.53456 0.22938,0.3156 0.41706,0.78683 0.41706,1.04727 0,0.46812 1.43648,2.14671 1.83708,2.14671 0.114,0 0.27399,-0.15671 0.35553,-0.34824 z m -44.395406,-1.70048 c -0.177768,-0.0647 -0.532234,-0.0686 -0.787704,-0.009 -0.25547,0.0596 -0.110025,0.11307 0.323212,0.11789 0.433238,0.005 0.642258,-0.0444 0.464492,-0.1091 z m 107.236436,-4.62286 c -0.0839,-0.18881 -0.14603,-0.13273 -0.15863,0.14299 -0.0114,0.2495 0.0507,0.38929 0.1379,0.31064 0.0872,-0.0785 0.0966,-0.28278 0.0207,-0.45363 z M 57.566658,155.72158 c 0.09198,-0.13421 -0.01341,-0.17391 -0.247072,-0.0933 -0.454877,0.15734 -0.538103,0.32698 -0.160417,0.32698 0.13589,0 0.319259,-0.10529 0.407489,-0.23393 z m 1.403837,-1.07896 c 0.167592,-0.33159 0.305441,-0.83749 0.306331,-1.12427 8.89e-4,-0.28678 0.178123,-0.82648 0.393852,-1.19935 0.495914,-0.85714 0.499587,-1.3339 0.01028,-1.3339 -0.230239,0 -0.451978,0.33647 -0.558243,0.84709 -0.118493,0.56935 -0.380641,0.931 -0.799601,1.10306 -0.664798,0.27305 -0.786924,0.5343 -0.360745,0.77177 0.144412,0.0802 0.262567,0.4595 0.262567,0.84235 0,0.85611 0.338559,0.89848 0.745558,0.0935 z m 53.984585,-0.41276 c 0.0891,-0.3633 0.27663,-0.59663 0.41682,-0.51858 0.14017,0.078 0.25487,-0.0772 0.25487,-0.34534 0,-0.27539 -0.17128,-0.48732 -0.39386,-0.48732 -0.23592,0 -0.39384,0.21825 -0.39384,0.54434 0,0.29944 -0.13386,0.66507 -0.29744,0.81252 -0.16921,0.15254 -0.21263,0.45355 -0.10072,0.6982 0.2046,0.44733 0.24575,0.39104 0.51417,-0.70382 z m -14.032113,0.18635 c 0,-0.19573 -0.236312,-0.75335 -0.525137,-1.2391 -0.288824,-0.48577 -0.526944,-1.04453 -0.529156,-1.24175 -0.0033,-0.29071 -0.04662,-0.29795 -0.229176,-0.0384 -0.169948,0.24179 -0.353637,0.25832 -0.749159,0.0675 -0.288203,-0.13906 -0.598619,-0.18555 -0.689813,-0.10336 -0.09119,0.082 -0.165807,-0.0811 -0.165807,-0.36333 0,-0.29806 -0.164946,-0.51286 -0.393852,-0.51286 -0.79485,0 -0.356777,0.95591 1.078554,2.3534 1.448054,1.40991 2.203546,1.77938 2.203546,1.07774 z m 56.845953,-1.06425 c 0.0892,-0.13019 -0.081,-0.23667 -0.37836,-0.23667 -0.29734,0 -0.54063,0.10648 -0.54063,0.23667 0,0.13019 0.17027,0.23671 0.37836,0.23671 0.20809,0 0.45138,-0.10652 0.54063,-0.23671 z m -97.102052,-1.22778 c -0.08382,-0.18883 -0.146035,-0.13273 -0.158634,0.143 -0.0114,0.24949 0.05066,0.38926 0.137905,0.31064 0.08725,-0.0785 0.09658,-0.2828 0.02073,-0.45364 z m 71.632962,0.28104 c -0.0892,-0.13017 -0.303,-0.23505 -0.47499,-0.23304 -0.1879,0.002 -0.15551,0.0954 0.0812,0.23304 0.50442,0.29388 0.59532,0.29388 0.39385,0 z m -33.170892,-2.4219 c -0.233641,-0.21065 -0.30229,-0.082 -0.288744,0.54026 0.01669,0.76685 0.03535,0.78368 0.306515,0.2763 0.213496,-0.39948 0.208865,-0.61227 -0.01777,-0.81656 z m -37.146637,-0.11795 c -0.06657,-0.2303 -0.125418,-0.0993 -0.130769,0.29131 -0.0054,0.39056 0.04911,0.57897 0.12104,0.41875 0.07193,-0.16027 0.0763,-0.4798 0.0097,-0.71006 z m 0.896934,-2.03178 c 0.156446,-0.52731 0.103022,-0.63546 -0.313895,-0.63546 -0.344799,0 -0.503689,-0.16705 -0.506449,-0.53258 -0.0033,-0.43061 -0.05273,-0.46459 -0.258547,-0.17749 -0.365408,0.50973 -0.321373,1.83282 0.06565,1.9724 0.552921,0.19936 0.816498,0.0364 1.013249,-0.62687 z m 3.384764,-2.63335 c 0,-0.24981 -0.503897,-0.35475 -0.653773,-0.13612 -0.0907,0.1323 0.01928,0.24055 0.244425,0.24055 0.225142,0 0.409348,-0.0471 0.409348,-0.10443 z m -0.262568,-5.3394 c 0,-0.1302 -0.0521,-0.23668 -0.115788,-0.23668 -0.06368,0 -0.188811,0.10648 -0.278063,0.23668 -0.08926,0.13016 -0.03715,0.23668 0.115788,0.23668 0.152935,0 0.278063,-0.10652 0.278063,-0.23668 z M 81.593483,127.1728 c 0,-0.0513 -0.177234,-0.0934 -0.393852,-0.0934 -0.216618,0 -0.393852,0.10317 -0.393852,0.2293 0,0.12605 0.177234,0.16795 0.393852,0.0933 0.216618,-0.0748 0.393852,-0.1781 0.393852,-0.22925 z m 12.855533,-1.29066 c -0.152998,-0.70815 -0.260525,-2.13965 -0.238946,-3.18101 0.05035,-2.43024 0.04339,-2.48521 -0.31446,-2.48521 -0.334022,0 -0.174821,6.59782 0.171385,7.10277 0.428452,0.62489 0.648575,-0.20285 0.382021,-1.43655 z m 12.562434,-24.47621 c 0.0762,-0.0687 0.13864,-0.45159 0.13864,-0.85079 0,-0.642194 0.0706,-0.709847 0.61266,-0.587202 0.44044,0.09962 0.61266,0.03758 0.61266,-0.220932 0,-0.197755 0.11815,-0.359541 0.26256,-0.359541 0.14442,0 0.26258,-0.159763 0.26258,-0.355023 0,-0.195276 -0.117,-0.355037 -0.26001,-0.355037 -0.23411,0 0.148,-0.516252 0.94742,-1.28006 0.58765,-0.561449 0.73194,-1.496242 0.65184,-4.222899 l -0.0817,-2.78106 h 1.04728 c 0.79782,0 1.07752,-0.104208 1.1742,-0.437491 0.15469,-0.53321 1.60469,-0.843469 2.32283,-0.497009 0.4037,0.194749 0.54178,0.158009 0.67484,-0.179563 0.092,-0.233419 0.31545,-0.584167 0.49652,-0.779434 0.49377,-0.53246 0.76006,-6.133749 0.36404,-7.657297 -0.17419,-0.670145 -0.4262,-1.343256 -0.56001,-1.495798 -0.39067,-0.44536 -2.28653,-0.638504 -3.06591,-0.312347 -1.32512,0.554558 -1.47963,0.642591 -1.49565,0.852179 -0.22778,2.980145 -0.77929,5.424049 -1.47215,6.523663 -0.4215,0.668955 -0.45287,1.176315 -0.0936,1.514422 0.42849,0.403307 0.17036,2.942043 -0.29914,2.942043 -0.21357,0 -0.56763,0.161647 -0.78681,0.359217 -0.5453,0.491556 -6.39493,0.277681 -7.31807,-0.267564 -0.55978,-0.330627 -0.65207,-0.322874 -1.08933,0.09156 -0.262761,0.249018 -0.679634,0.789926 -0.926388,1.202026 -0.487744,0.814558 -1.568588,1.310516 -2.50455,1.149234 -0.831785,-0.143332 -0.750066,0.363124 0.19623,1.216139 0.521593,0.470173 0.787704,0.947543 0.787704,1.412999 0,0.750611 -0.667186,1.19359 -1.14669,0.761353 -0.149147,-0.134441 -1.045095,-0.246074 -1.990996,-0.248069 -0.945901,-0.0018 -1.58805,-0.08185 -1.427,-0.177521 0.161052,-0.09564 0.373942,-0.440158 0.47309,-0.7656 0.176007,-0.577726 0.170212,-0.580523 -0.245156,-0.118338 -0.233983,0.260353 -0.505952,0.587185 -0.604373,0.72631 -0.09842,0.139123 -0.710649,0.579394 -1.360505,0.978374 -1.49359,0.91699 -2.013206,1.441241 -2.239835,2.259811 -0.261344,0.943955 0.145593,0.785475 1.153924,-0.449359 0.845718,-1.035704 0.92684,-1.075517 1.904346,-0.934609 0.660388,0.0952 1.35925,0.01976 1.978699,-0.213542 0.941531,-0.354627 0.994395,-0.344247 3.130885,0.614304 1.195251,0.536262 2.308332,0.934407 2.473512,0.884777 0.259443,-0.07802 -0.339563,-0.936896 -1.581982,-2.268443 -0.212914,-0.228184 -0.05456,-0.29586 0.69233,-0.29586 1.216245,0 4.214195,1.329537 4.794525,2.12628 0.23547,0.323293 0.63491,0.775949 0.88763,1.005918 0.25273,0.229959 0.4595,0.736979 0.4595,1.126709 0,0.6774 0.0421,0.70375 0.95539,0.59835 0.52546,-0.0606 1.01778,-0.1665 1.09403,-0.23524 z M 93.010059,89.273401 c 1.598179,0.08886 2.437905,0.271572 3.484154,0.75805 0.758166,0.352534 1.378482,0.737937 1.378482,0.856476 0,0.118525 0.174982,0.215506 0.38885,0.215506 0.353431,0 0.508385,-0.314668 0.719673,-1.461491 0.04017,-0.218015 -0.424864,-1.283108 -1.033405,-2.366861 -0.608541,-1.083756 -1.594608,-3.374209 -2.191258,-5.089905 -0.59665,-1.715698 -1.231946,-3.170336 -1.411768,-3.232536 -0.803501,-0.27794 -1.281444,0.538651 -2.397814,4.096828 -0.470839,1.500685 -1.201072,3.474089 -1.62274,4.385328 -0.964659,2.084671 -1.18249,2.871038 -0.965792,3.486497 0.148584,0.422003 0.264214,0.336013 0.858824,-0.638664 l 0.687123,-1.126317 z M 82.987771,88.432807 c -0.08521,-0.744169 -0.256541,-1.353032 -0.38075,-1.353032 -0.124209,0 -0.225834,0.213009 -0.225834,0.473372 0,0.260353 -0.118155,0.473366 -0.262568,0.473366 -0.144412,0 -0.262569,-0.159759 -0.262569,-0.355023 0,-0.195267 -0.10382,-0.355035 -0.230713,-0.355035 -0.400823,0 -0.77821,-1.238612 -0.955521,-3.136098 -0.09428,-1.008869 -0.281735,-1.83432 -0.416578,-1.83432 -0.134842,0 -0.190733,0.239647 -0.124201,0.532546 0.06653,0.292905 0.194309,1.210217 0.283952,2.038483 0.177936,1.644058 1.043952,3.623946 1.962224,4.486047 0.321151,0.301504 0.625214,0.510963 0.675693,0.465459 0.05048,-0.04552 0.02207,-0.691596 -0.06313,-1.435765 z m 39.778419,-1.257453 c 0.38407,-0.5329 0.57637,-1.10933 0.52513,-1.574206 -0.0986,-0.89494 -0.59871,-1.105831 -0.86642,-0.365376 -0.3716,1.027792 -0.89795,2.672802 -0.90951,2.842481 -0.0268,0.393449 0.68877,-0.123098 1.2508,-0.902899 z m -1.26238,-2.788494 c 0,-0.179333 -0.17724,-0.458646 -0.39386,-0.620705 -0.33306,-0.249169 -0.39384,-0.19884 -0.39384,0.326053 0,0.39394 0.14387,0.620702 0.39384,0.620702 0.21662,0 0.39386,-0.146725 0.39386,-0.32605 z M 80.489463,81.37153 c 0.260161,-0.308527 0.245745,-0.440437 -0.0743,-0.67987 -0.340719,-0.254903 -0.39709,-0.186558 -0.39709,0.481418 0,0.428166 0.03343,0.734106 0.0743,0.679872 0.04087,-0.05422 0.219554,-0.270885 0.39709,-0.48142 z m 36.361467,-1.165053 c -0.077,-0.265524 -0.19871,-0.429872 -0.27042,-0.365241 -0.14204,0.128046 0.10886,0.848 0.29553,0.848 0.0632,0 0.0519,-0.217244 -0.0251,-0.482759 z M 81.08804,77.783911 c -0.01083,-0.09439 -0.01969,-0.331365 -0.01969,-0.52663 0,-0.195263 -0.118155,-0.355023 -0.262568,-0.355023 -0.144413,0 -0.262568,0.275139 -0.262568,0.611432 0,0.336293 0.127017,0.573282 0.282261,0.526629 0.155243,-0.0466 0.273398,-0.162032 0.262567,-0.256408 z m 0.981573,-1.314088 c 0.04525,-0.413053 -0.03639,-0.751001 -0.18143,-0.751001 -0.407073,0 -0.547168,0.34182 -0.292395,0.713419 0.142045,0.207176 0.110268,0.466892 -0.08296,0.678082 -0.251137,0.274463 -0.235155,0.319323 0.08066,0.226399 0.216618,-0.06379 0.430877,-0.45385 0.47613,-0.866899 z m -3.121209,0.33516 c 0.220514,-0.239514 0.226051,-0.37932 0.01958,-0.494345 -0.419976,-0.233983 -1.050448,0.04561 -1.050448,0.465841 0,0.454639 0.622691,0.471848 1.030873,0.02855 z m 43.868236,-2.979654 c 0,-0.260356 -0.11815,-0.473371 -0.26256,-0.473371 -0.14441,0 -0.26257,0.213015 -0.26257,0.473371 0,0.260352 0.11816,0.473373 0.26257,0.473373 0.14441,0 0.26256,-0.213021 0.26256,-0.473373 z m -1.19865,-0.46752 c 0.89746,-0.307575 0.85679,-0.989635 -0.089,-1.493286 -0.96841,-0.51566 -1.33319,-0.513478 -1.35643,0.008 -0.0162,0.36229 -0.0433,0.357037 -0.21665,-0.04184 -0.18728,-0.430947 -0.20821,-0.432558 -0.37993,-0.02916 -0.18106,0.425329 0.10579,0.929013 0.84926,1.491152 0.46804,0.353891 0.36617,0.348342 1.1928,0.06503 z m -7.2539,-1.466851 c 0.0605,-0.470128 -0.0602,-0.668945 -0.47928,-0.788815 -0.73628,-0.210653 -0.81939,-0.102725 -0.6184,0.803113 0.20734,0.934523 0.97684,0.9245 1.09768,-0.01432 z m -3.42698,0.100044 c 0.0621,-0.170495 -0.11495,-0.295855 -0.41781,-0.295855 -0.72011,0 -1.35619,0.240931 -1.35619,0.513689 0,0.332216 1.64735,0.129926 1.774,-0.217834 z M 86.077867,107.29674 c 0.0126,-0.27573 0.07482,-0.3318 0.158634,-0.14299 0.07585,0.17085 0.06652,0.37499 -0.02073,0.45363 -0.08725,0.078 -0.149306,-0.0614 -0.137904,-0.31064 z M 123.60435,89.0869 c 0,-0.197847 0.29539,-0.781533 0.65642,-1.297069 0.36103,-0.515539 0.65642,-1.052246 0.65642,-1.192693 0,-0.140454 0.11815,-0.189537 0.26256,-0.109082 0.41201,0.229534 0.30984,1.000442 -0.2679,2.021262 -0.52475,0.927207 -1.3075,1.272981 -1.3075,0.577582 z"
       id="path1" /></g></svg>
